PathFileType	4	(x/y/z)	A01_STANDINGCAL_T0011.trc
DataRate	CameraRate	NumFrames	NumMarkers	Units	OrigDataRate	OrigDataStartFrame	OrigNumFrames
240	240	7	48	mm	240	601	1200
Frame#	Time	TOP_HEAD			R_AC			L_AC			R_ASIS			L_ASIS			R_PSIS			L_PSIS			SACRAL			L_IC			R_IC			L_GT			R_GT			R_LAT_KNEE			R_MED_KNEE			L_MED_KNEE			L_LAT_KNEE			R_TOE			L_TOE			R_1ST_MET			L_1ST_MET			L_5TH_MET			R_5TH_MET			R_LAT_ANK			R_MED_ANK			L_MED_ANK			L_LAT_ANK			L_HEEL_SUP			R_HEEL_SUP			L_HEEL_LAT			R_HEEL_LAT			L_HEEL_MED			R_HEEL_MED			R_LL_PROX_POST			R_LL_PROX_ANT			R_LL_DIST_ANT			R_LL_DIST_POST			R_THIGH_PROX_POST			R_THIGH_PROX_ANT			R_THIGH_DIST_ANT			R_THIGH_DIST_POST			L_PROS_PROX_ANT			L_PROS_PROX_POST			L_PROS_DIST_POST			L_PROS_DIST_ANT			L_THIGH_PROX_ANT			L_THIGH_PROX_POST			L_THIGH_DIST_POST			L_THIGH_DIST_ANT			
		X1	Y1	Z1	X2	Y2	Z2	X3	Y3	Z3	X4	Y4	Z4	X5	Y5	Z5	X6	Y6	Z6	X7	Y7	Z7	X8	Y8	Z8	X9	Y9	Z9	X10	Y10	Z10	X11	Y11	Z11	X12	Y12	Z12	X13	Y13	Z13	X14	Y14	Z14	X15	Y15	Z15	X16	Y16	Z16	X17	Y17	Z17	X18	Y18	Z18	X19	Y19	Z19	X20	Y20	Z20	X21	Y21	Z21	X22	Y22	Z22	X23	Y23	Z23	X24	Y24	Z24	X25	Y25	Z25	X26	Y26	Z26	X27	Y27	Z27	X28	Y28	Z28	X29	Y29	Z29	X30	Y30	Z30	X31	Y31	Z31	X32	Y32	Z32	X33	Y33	Z33	X34	Y34	Z34	X35	Y35	Z35	X36	Y36	Z36	X37	Y37	Z37	X38	Y38	Z38	X39	Y39	Z39	X40	Y40	Z40	X41	Y41	Z41	X42	Y42	Z42	X43	Y43	Z43	X44	Y44	Z44	X45	Y45	Z45	X46	Y46	Z46	X47	Y47	Z47	X48	Y48	Z48	

601	2.5021	583.22	1866.8	326.64	575.41	1593.4	493.14	592.52	1603.9	87.446	678.8	1094	489.54	710.23	1062.3	132.93	474.16	1100.4	342.93	492.45	1105.8	214.38	465.44	1075.5	274.18	668	1183.6	91.612	622.56	1196.2	500.22	645.83	972.24	85.062	605.27	985.75	518.39	548.58	581.26	470.54	594.74	568.54	345.84	604.77	558.31	305.63	592.28	576.13	148	774.74	72.734	452.93	776.8	85.531	172.61	697.96	57.635	395.36	695.91	57.137	225.3	670.08	50.759	95.104	651.46	45.987	523.61	526.41	110.93	476.03	565.42	117.42	378.72	565.23	126.56	208.77	540.09	123.05	141.43	453.79	73.337	173.24	448.37	69.361	408.3	466.1	45.631	142.71	452.1	45.357	443.18	472.29	44.813	206.22	462.84	43.294	381.9	516.32	399.46	501.06	452.17	404.62	466.88	472.22	323.54	468.83	524.03	323.92	491.76	548.4	862.72	495.49	617.17	876.33	514.57	614.31	784.75	509.07	548.74	773.16	490.39	637.52	492.92	157.23	583.57	493.71	143.67	577.16	430.85	147.24	629.57	437.4	159.59	687.6	822.28	127.66	620.99	834.23	104.04	622.33	759.13	119.35	683.67	749.08	140.21
602	2.5063	583.2	1866.8	326.64	575.39	1593.4	493.14	592.5	1603.9	87.442	678.77	1094	489.54	710.23	1062.3	132.93	474.15	1100.4	342.92	492.44	1105.8	214.36	465.43	1075.5	274.16	668	1183.6	91.612	622.54	1196.2	500.21	645.84	972.24	85.06	605.24	985.75	518.38	548.57	581.26	470.54	594.74	568.54	345.84	604.77	558.32	305.63	592.28	576.13	148	774.74	72.735	452.93	776.8	85.531	172.61	697.96	57.634	395.36	695.9	57.135	225.29	670.08	50.758	95.104	651.46	45.986	523.61	526.41	110.93	476.03	565.42	117.42	378.72	565.23	126.56	208.77	540.09	123.05	141.43	453.78	73.333	173.24	448.37	69.363	408.3	466.1	45.631	142.71	452.1	45.356	443.18	472.29	44.813	206.22	462.84	43.291	381.9	516.31	399.46	501.06	452.17	404.62	466.87	472.21	323.54	468.83	524.03	323.92	491.76	548.39	862.72	495.48	617.15	876.33	514.57	614.29	784.75	509.07	548.72	773.16	490.38	637.52	492.92	157.23	583.57	493.71	143.67	577.16	430.85	147.24	629.57	437.4	159.59	687.6	822.28	127.66	620.99	834.23	104.04	622.33	759.13	119.34	683.67	749.08	140.21
603	2.5104	583.17	1866.8	326.64	575.37	1593.4	493.14	592.49	1603.9	87.438	678.75	1094	489.55	710.23	1062.3	132.94	474.13	1100.4	342.9	492.44	1105.8	214.34	465.42	1075.5	274.15	668.01	1183.6	91.611	622.51	1196.2	500.21	645.85	972.24	85.058	605.22	985.75	518.38	548.57	581.26	470.54	594.75	568.54	345.85	604.77	558.32	305.63	592.28	576.13	148	774.74	72.736	452.93	776.8	85.531	172.61	697.96	57.634	395.36	695.9	57.134	225.29	670.08	50.758	95.104	651.46	45.986	523.61	526.41	110.93	476.03	565.41	117.42	378.72	565.23	126.56	208.77	540.09	123.05	141.43	453.78	73.329	173.24	448.37	69.365	408.3	466.1	45.63	142.7	452.1	45.356	443.18	472.29	44.814	206.22	462.84	43.289	381.9	516.3	399.46	501.05	452.16	404.61	466.86	472.21	323.53	468.82	524.02	323.92	491.75	548.37	862.72	495.47	617.13	876.33	514.57	614.27	784.76	509.07	548.71	773.16	490.37	637.52	492.92	157.23	583.57	493.71	143.67	577.16	430.85	147.24	629.57	437.4	159.59	687.61	822.28	127.66	621	834.22	104.04	622.34	759.13	119.33	683.67	749.08	140.21
604	2.5146	583.15	1866.8	326.64	575.35	1593.4	493.13	592.48	1603.9	87.434	678.73	1094	489.55	710.23	1062.3	132.94	474.12	1100.4	342.88	492.43	1105.8	214.33	465.41	1075.5	274.13	668.01	1183.6	91.61	622.48	1196.2	500.2	645.85	972.24	85.055	605.2	985.75	518.37	548.56	581.26	470.53	594.76	568.54	345.85	604.77	558.32	305.63	592.28	576.13	148	774.74	72.737	452.93	776.8	85.531	172.61	697.96	57.633	395.36	695.9	57.133	225.29	670.08	50.758	95.105	651.46	45.985	523.61	526.4	110.93	476.03	565.41	117.42	378.72	565.23	126.56	208.77	540.09	123.05	141.43	453.78	73.325	173.24	448.37	69.367	408.29	466.1	45.63	142.7	452.1	45.356	443.18	472.3	44.814	206.22	462.84	43.287	381.9	516.3	399.46	501.05	452.16	404.61	466.85	472.21	323.53	468.81	524.02	323.92	491.75	548.35	862.71	495.46	617.11	876.33	514.57	614.26	784.76	509.07	548.7	773.16	490.35	637.52	492.92	157.22	583.57	493.71	143.67	577.16	430.85	147.24	629.57	437.4	159.59	687.61	822.28	127.66	621	834.22	104.03	622.34	759.14	119.32	683.68	749.08	140.21
605	2.5188	583.12	1866.8	326.64	575.32	1593.4	493.13	592.47	1603.9	87.431	678.71	1094	489.55	710.23	1062.3	132.94	474.11	1100.4	342.87	492.43	1105.8	214.31	465.41	1075.5	274.11	668.01	1183.6	91.609	622.45	1196.2	500.2	645.86	972.24	85.053	605.17	985.75	518.37	548.55	581.26	470.53	594.77	568.55	345.85	604.77	558.32	305.63	592.28	576.13	147.99	774.74	72.737	452.93	776.8	85.531	172.61	697.96	57.633	395.36	695.9	57.133	225.29	670.08	50.758	95.105	651.46	45.985	523.61	526.4	110.93	476.03	565.41	117.42	378.71	565.23	126.56	208.77	540.09	123.05	141.43	453.78	73.322	173.25	448.37	69.368	408.29	466.1	45.629	142.7	452.1	45.356	443.18	472.3	44.814	206.23	462.84	43.285	381.89	516.29	399.46	501.04	452.15	404.61	466.84	472.2	323.53	468.81	524.01	323.92	491.75	548.34	862.71	495.45	617.1	876.33	514.57	614.24	784.76	509.07	548.69	773.16	490.34	637.52	492.92	157.22	583.58	493.71	143.67	577.16	430.85	147.24	629.57	437.4	159.59	687.61	822.28	127.66	621.01	834.22	104.03	622.35	759.14	119.32	683.68	749.08	140.21
606	2.5229	583.09	1866.8	326.64	575.3	1593.4	493.13	592.46	1603.9	87.428	678.69	1094	489.55	710.24	1062.3	132.94	474.09	1100.3	342.85	492.42	1105.8	214.29	465.4	1075.5	274.09	668.02	1183.6	91.608	622.43	1196.2	500.2	645.87	972.24	85.05	605.15	985.75	518.36	548.55	581.26	470.52	594.78	568.55	345.85	604.77	558.32	305.63	592.29	576.13	147.99	774.74	72.738	452.93	776.8	85.531	172.61	697.96	57.632	395.36	695.9	57.132	225.29	670.08	50.758	95.105	651.46	45.985	523.62	526.4	110.93	476.02	565.41	117.42	378.71	565.23	126.56	208.77	540.09	123.05	141.43	453.78	73.32	173.25	448.37	69.37	408.29	466.1	45.629	142.7	452.1	45.356	443.18	472.3	44.815	206.22	462.83	43.284	381.89	516.28	399.46	501.04	452.15	404.6	466.83	472.2	323.53	468.8	524.01	323.92	491.75	548.32	862.71	495.45	617.08	876.33	514.57	614.23	784.76	509.07	548.68	773.16	490.33	637.53	492.92	157.22	583.58	493.71	143.67	577.16	430.85	147.23	629.57	437.4	159.58	687.62	822.28	127.66	621.01	834.22	104.03	622.35	759.14	119.31	683.68	749.08	140.21
607	2.5271	583.06	1866.8	326.64	575.28	1593.4	493.13	592.45	1603.9	87.426	678.67	1094	489.55	710.24	1062.3	132.94	474.08	1100.3	342.83	492.42	1105.8	214.28	465.39	1075.5	274.07	668.02	1183.6	91.606	622.4	1196.2	500.19	645.87	972.24	85.047	605.13	985.75	518.35	548.54	581.26	470.52	594.8	568.55	345.85	604.77	558.32	305.63	592.29	576.13	147.99	774.74	72.739	452.93	776.8	85.532	172.61	697.96	57.632	395.36	695.9	57.132	225.29	670.08	50.757	95.106	651.45	45.984	523.62	526.4	110.93	476.02	565.41	117.42	378.71	565.23	126.56	208.77	540.09	123.05	141.43	453.78	73.32	173.25	448.37	69.371	408.29	466.1	45.629	142.7	452.1	45.356	443.18	472.3	44.815	206.22	462.83	43.283	381.89	516.28	399.46	501.04	452.14	404.6	466.82	472.19	323.53	468.79	524.01	323.92	491.74	548.31	862.7	495.44	617.06	876.33	514.57	614.21	784.77	509.07	548.67	773.16	490.31	637.53	492.92	157.22	583.58	493.71	143.67	577.16	430.85	147.23	629.57	437.4	159.58	687.62	822.28	127.67	621.02	834.22	104.02	622.36	759.15	119.3	683.68	749.08	140.21
